<svg xmlns="http://www.w3.org/2000/svg" viewBox="0 0 740.03 726.06">
  <defs>
    <style>
      .cls-1{
        stroke-width: 35;
        stroke: #777;
        fill: #777;
      }
      @media (prefers-color-scheme: dark) {
        .cls-1{
          stroke: #fafafa;
          fill: #fafafa;
        }
      }
    </style>
  </defs>
  <title>
    Sloppy Labwork
  </title>
  <path class="cls-1" d="M399,732a9.23,9.23,0,0,1-7.36-3.68L84.92,319.79a9.2,9.2,0,0,1,7.36-14.74H312.39a9.21,9.21,0,1,1,0,18.42H110.7L398.63,707,660.8,323.47H461.14a9.21,9.21,0,0,1,0-18.42h217.1a9.21,9.21,0,0,1,7.61,14.41L406.59,728a9.23,9.23,0,0,1-7.4,4Z" transform="translate(-29.98 -36.97)"/>
  <path class="cls-1" d="M539.75,409.92a6.9,6.9,0,0,0-9.18-3.31L460,439.77a6.89,6.89,0,0,0-3.86,7.48L469.77,523,427,564.44l16.11-54.22a6.89,6.89,0,0,0-1.46-6.55L392.25,448l123.86-65.19a6.9,6.9,0,0,0,2-10.61c-30.7-35.69-50.6-45.89-60.87-48.63V129.42a6.91,6.91,0,1,0-13.81,0v18.22H395a6.91,6.91,0,0,0,0,13.81h48.5v44.49H422.66a6.91,6.91,0,1,0,0,13.81h20.79v46.38H422.66a6.91,6.91,0,1,0,0,13.81h20.79v49.64a6.79,6.79,0,0,0,2.14,5.18,6.57,6.57,0,0,0,5.22,1.71h0c.29,0,16.86.38,51.1,38.24L378,439.91a6.91,6.91,0,0,0-1.94,10.7L428.79,510l-22.52,75.81a6.92,6.92,0,0,0,3,7.87,6.83,6.83,0,0,0,3.58,1,6.92,6.92,0,0,0,4.81-1.94L482,530.38a6.91,6.91,0,0,0,2-6.19L470.63,450l65.81-30.92A6.9,6.9,0,0,0,539.75,409.92Z" transform="translate(-29.98 -36.97)"/>
  <path class="cls-1" d="M204.78,450.24c30.29-72.13,107.46-114,116.25-118.61a9.45,9.45,0,0,0,5.09-8.57V93.25H306.35c-7,0-13.19-6.63-13.19-14.19V64a13.21,13.21,0,0,1,13.19-13.2H456.11A13.21,13.21,0,0,1,469.31,64V79.06a13.21,13.21,0,0,1-13.2,13.19H422.66a6.91,6.91,0,1,0,0,13.81h33.45a27,27,0,0,0,27-27V64a27,27,0,0,0-27-27H306.35a27,27,0,0,0-27,27V79.06c0,15.18,12.37,28,27,28h6V320.62c-18.76,10.12-85.74,50-117.27,117.52Z" transform="translate(-29.98 -36.97)"/>
</svg>